<svg xmlns="http://www.w3.org/2000/svg" viewBox="0 0 32 32" width="32" height="32">
  <defs>
    <linearGradient id="g" x1="0%" y1="0%" x2="100%" y2="100%">
      <stop offset="0%" style="stop-color:#667eea"/>
      <stop offset="100%" style="stop-color:#764ba2"/>
    </linearGradient>
  </defs>
  <rect width="32" height="32" rx="6" fill="#1a1a2e"/>
  <polygon points="16,6 26,11 26,21 16,26 6,21 6,11" fill="url(#g)"/>
  <polygon points="16,9 23,12.5 23,19.5 16,23 9,19.5 9,12.5" fill="none" stroke="rgba(255,255,255,0.25)" stroke-width="0.8"/>
  <path d="M 12 16 L 20 16" stroke="white" stroke-width="1.8" stroke-linecap="round"/>
  <path d="M 18.5 13.5 L 21 16 L 18.5 18.5" fill="none" stroke="white" stroke-width="1.3" stroke-linecap="round" stroke-linejoin="round"/>
  <path d="M 13.5 13.5 L 11 16 L 13.5 18.5" fill="none" stroke="white" stroke-width="1.3" stroke-linecap="round" stroke-linejoin="round"/>
  <circle cx="5" cy="10" r="1.8" fill="#667eea" opacity="0.7"/>
  <circle cx="5" cy="22" r="1.8" fill="#667eea" opacity="0.7"/>
  <circle cx="27" cy="10" r="1.8" fill="#a855f7" opacity="0.7"/>
  <circle cx="27" cy="22" r="1.8" fill="#a855f7" opacity="0.7"/>
</svg>
