<svg xmlns="http://www.w3.org/2000/svg" viewBox="0 0 128 128" width="128" height="128">
  <defs>
    <linearGradient id="crystalGrad1" x1="0%" y1="0%" x2="100%" y2="100%">
      <stop offset="0%" style="stop-color:#0f172a;stop-opacity:1" />
      <stop offset="50%" style="stop-color:#1e293b;stop-opacity:1" />
      <stop offset="100%" style="stop-color:#0f172a;stop-opacity:1" />
    </linearGradient>
    <linearGradient id="crystalGrad2" x1="0%" y1="0%" x2="100%" y2="100%">
      <stop offset="0%" style="stop-color:#38bdf8;stop-opacity:1" />
      <stop offset="50%" style="stop-color:#818cf8;stop-opacity:1" />
      <stop offset="100%" style="stop-color:#a78bfa;stop-opacity:1" />
    </linearGradient>
    <linearGradient id="crystalGrad3" x1="0%" y1="100%" x2="100%" y2="0%">
      <stop offset="0%" style="stop-color:#22d3ee;stop-opacity:1" />
      <stop offset="100%" style="stop-color:#f472b6;stop-opacity:1" />
    </linearGradient>
    <filter id="crystalGlow">
      <feGaussianBlur stdDeviation="4" result="coloredBlur"/>
      <feMerge>
        <feMergeNode in="coloredBlur"/>
        <feMergeNode in="SourceGraphic"/>
      </feMerge>
    </filter>
    <filter id="crystalShine">
      <feGaussianBlur stdDeviation="1" result="blur"/>
      <feOffset dx="0" dy="-1" result="offsetBlur"/>
      <feComposite in="SourceGraphic" in2="offsetBlur" operator="arithmetic" k2="0" k3="0" k4="1"/>
    </filter>
  </defs>
  <polygon points="64,8 108,36 108,84 64,112 20,84 20,36" fill="url(#crystalGrad1)" opacity="0.95"/>
  <polygon points="64,14 102,38 102,82 64,106 26,82 26,38" fill="none" stroke="url(#crystalGrad2)" stroke-width="1" opacity="0.6"/>
  <polygon points="64,6 112,34 112,86 64,114 16,86 16,34" fill="none" stroke="url(#crystalGrad2)" stroke-width="0.5" opacity="0.3"/>
  <polygon points="64,24 88,38 88,78 64,92 40,78 40,38" fill="url(#crystalGrad2)" filter="url(#crystalGlow)"/>
  <polygon points="64,24 64,92 40,78 40,38" fill="url(#crystalGrad2)" opacity="0.7"/>
  <polygon points="64,24 88,38 88,78 64,92" fill="url(#crystalGrad3)" opacity="0.5"/>
  <polygon points="64,30 82,42 82,74 64,86 46,74 46,42" fill="url(#crystalGrad1)" opacity="0.8"/>
  <polygon points="64,36 76,46 76,72 64,82 52,72 52,46" fill="url(#crystalGrad2)"/>
  <polygon points="64,36 64,82 52,72 52,46" fill="url(#crystalGrad2)" opacity="0.8"/>
  <polygon points="64,36 76,46 76,72 64,82" fill="url(#crystalGrad3)" opacity="0.6"/>
  <polygon points="64,44 72,49 72,69 64,74 56,69 56,49" fill="white" opacity="0.9"/>
  <polygon points="64,24 64,36 46,42 40,38" fill="white" opacity="0.15"/>
  <polygon points="64,24 88,38 82,42 64,36" fill="white" opacity="0.25"/>
  <line x1="40" y1="38" x2="46" y2="42" stroke="url(#crystalGrad3)" stroke-width="0.8" opacity="0.6"/>
  <line x1="88" y1="38" x2="82" y2="42" stroke="url(#crystalGrad3)" stroke-width="0.8" opacity="0.6"/>
  <line x1="40" y1="78" x2="46" y2="74" stroke="url(#crystalGrad3)" stroke-width="0.8" opacity="0.6"/>
  <line x1="88" y1="78" x2="82" y2="74" stroke="url(#crystalGrad3)" stroke-width="0.8" opacity="0.6"/>
</svg>